<?xml version="1.0" encoding="UTF-8"?>
<svg width="120px" height="100px" viewBox="0 0 120 100" version="1.1" xmlns="http://www.w3.org/2000/svg" xmlns:xlink="http://www.w3.org/1999/xlink">
    <!-- Generator: Sketch 53.2 (72643) - https://sketchapp.com -->
    <title>Artboard</title>
    <desc>Created with Sketch.</desc>
    <defs>
        <filter x="-61.1%" y="-81.5%" width="222.2%" height="259.3%" filterUnits="objectBoundingBox" id="filter-1">
            <feOffset dx="0" dy="2" in="SourceAlpha" result="shadowOffsetOuter1"></feOffset>
            <feGaussianBlur stdDeviation="1" in="shadowOffsetOuter1" result="shadowBlurOuter1"></feGaussianBlur>
            <feColorMatrix values="0 0 0 0 0   0 0 0 0 0   0 0 0 0 0  0 0 0 0.102581522 0" type="matrix" in="shadowBlurOuter1" result="shadowMatrixOuter1"></feColorMatrix>
            <feMerge>
                <feMergeNode in="shadowMatrixOuter1"></feMergeNode>
                <feMergeNode in="SourceGraphic"></feMergeNode>
            </feMerge>
        </filter>
        <filter x="-61.1%" y="-78.6%" width="222.2%" height="250.0%" filterUnits="objectBoundingBox" id="filter-2">
            <feMorphology radius="0.54" operator="dilate" in="SourceAlpha" result="shadowSpreadOuter1"></feMorphology>
            <feOffset dx="0" dy="2" in="shadowSpreadOuter1" result="shadowOffsetOuter1"></feOffset>
            <feMorphology radius="1" operator="erode" in="SourceAlpha" result="shadowInner"></feMorphology>
            <feOffset dx="0" dy="2" in="shadowInner" result="shadowInner"></feOffset>
            <feComposite in="shadowOffsetOuter1" in2="shadowInner" operator="out" result="shadowOffsetOuter1"></feComposite>
            <feGaussianBlur stdDeviation="1" in="shadowOffsetOuter1" result="shadowBlurOuter1"></feGaussianBlur>
            <feColorMatrix values="0 0 0 0 0   0 0 0 0 0   0 0 0 0 0  0 0 0 0.102581522 0" type="matrix" in="shadowBlurOuter1" result="shadowMatrixOuter1"></feColorMatrix>
            <feMerge>
                <feMergeNode in="shadowMatrixOuter1"></feMergeNode>
                <feMergeNode in="SourceGraphic"></feMergeNode>
            </feMerge>
        </filter>
        <circle id="path-3" cx="93" cy="78" r="12"></circle>
    </defs>
    <g id="Artboard" stroke="none" stroke-width="1" fill="none" fill-rule="evenodd">
        <g id="Group-4-Copy-2">
            <g id="Group">
                <path d="M105.917064,88.0650212 C106.276723,88.0618905 106.287756,87.5302456 106.469682,87.2603375 C112.487321,78.332468 116,67.5764491 116,56 C116,25.072054 90.927946,0 60,0 C29.072054,0 4,25.072054 4,56 C4,67.3915424 7.40136174,77.9886542 13.2438867,86.831137 C13.5513915,87.296536 13.5520613,88.1779204 14.1865481,88.2126124 C46.8764058,90 88.9613478,88.2126124 105.917064,88.0650212 Z" id="Oval" fill="#F2F9FF"></path>
                <path d="M30,5 C32.7160064,5.4137931 34.382673,6.4137931 35,8 C36.1216444,6.4137931 37.7883111,5.4137931 40,5" id="Line-6" stroke="#4D7BB3" stroke-width="1.3" stroke-linecap="round" stroke-linejoin="round" transform="translate(35.000000, 6.500000) rotate(-17.000000) translate(-35.000000, -6.500000) "></path>
                <path d="M40.2200813,9.39631566 C42.9360877,9.81010876 44.6027544,10.8101088 45.2200813,12.3963157 C46.3417258,10.8101088 48.0083924,9.81010876 50.2200813,9.39631566" id="Line-6-Copy" stroke="#4D7BB3" stroke-width="1.3" stroke-linecap="round" stroke-linejoin="round" transform="translate(45.220081, 10.896316) rotate(-17.000000) translate(-45.220081, -10.896316) "></path>
                <g id="Group-6" transform="translate(0.000000, 87.000000)" opacity="0.429999977" stroke="#4D7BB3" stroke-linecap="round" stroke-linejoin="round" stroke-width="2">
                    <path d="M18,1 L106.281381,1" id="Line-2"></path>
                    <path d="M0.811775674,1 L14,1" id="Line-2-Copy"></path>
                    <path d="M109.811776,1 L119.74553,1" id="Line-2-Copy-2"></path>
                </g>
                <path d="M26.8117757,98 L33.1515974,98" id="Line-2-Copy-4" stroke="#4D7BB3" stroke-width="2" opacity="0.429999977" stroke-linecap="round" stroke-linejoin="round"></path>
                <path d="M37.8117757,98 L48.1841026,98 C49.3193341,96.4287493 50.4187667,95.643124 51.4824001,95.643124 C52.5460336,95.643124 53.5745585,96.4287493 54.5679749,98 L70,98" id="Line-2-Copy-6" stroke="#4D7BB3" stroke-width="2" opacity="0.429999977" stroke-linecap="round" stroke-linejoin="round"></path>
                <path d="M81.8117757,98 L88.1515974,98" id="Line-2-Copy-5" stroke="#4D7BB3" stroke-width="2" opacity="0.429999977" stroke-linecap="round" stroke-linejoin="round"></path>
            </g>
            <path d="M31,40 C29.3431458,40 28,41.3431458 28,43 L28,85 C28,86.6568542 29.3431458,88 31,88 L89,88 C90.6568542,88 92,86.6568542 92,85 L92,49 C92,47.3431458 90.6568542,46 89,46 L58.0654466,46 C57.2498875,46 56.453815,45.750704 55.7839298,45.285526 L48.6868875,40.357237 C48.3519449,40.124648 47.9539086,40 47.5461291,40 L31,40 Z" id="Rectangle" stroke="#5E8DC6" stroke-width="2" fill="#C7E3FF"></path>
            <polygon id="Line-Copy" fill="#E9F5FF" points="87 58.5 87 87.0394344 87 88 91.1847602 88 92.6826202 84.9392083 92.5564704 56"></polygon>
            <polygon id="Line-Copy-2" fill="#E9F5FF" transform="translate(30.658690, 72.000000) scale(-1, 1) translate(-30.658690, -72.000000) " points="27.8173798 58.5 27.8173798 87.0394344 27.8173798 88 32.0021401 88 33.5 84.9392083 33.3738502 56"></polygon>
            <g id="Group-3" filter="url(#filter-1)" transform="translate(48.410254, 50.745191) rotate(-30.000000) translate(-48.410254, -50.745191) translate(39.410254, 43.995191)">
                <rect id="Rectangle" stroke="#FFFFFF" stroke-width="2.16" fill="#6DAAFD" x="-1.08" y="-1.08" width="20.16" height="15.66" rx="1.3824"></rect>
                <ellipse id="Oval" fill="#FFFFFF" cx="4.03448276" cy="4.17857143" rx="1.55172414" ry="1.60714286"></ellipse>
                <path d="M13.2933223,6.01804466 L15.6043833,10.4069213 C15.7822448,10.7446935 15.6526116,11.1626973 15.3148393,11.3405589 C15.2155445,11.3928448 15.1050123,11.4201681 14.9927925,11.4201681 L3.76302553,11.4201681 C3.38128631,11.4201681 3.07182553,11.1107073 3.07182553,10.7289681 C3.07182553,10.5448451 3.14528758,10.3683318 3.27591909,10.2385756 L5.87014216,7.66173588 C6.11637903,7.41714899 6.50581103,7.39308816 6.78028351,7.60550332 L8.59454078,9.00956301 C8.88485791,9.2342404 9.30016619,9.19277634 9.5403323,8.91513593 L12.1589749,5.88789352 C12.4087169,5.59918302 12.845219,5.56759282 13.1339295,5.81733484 C13.1991084,5.87371628 13.2531685,5.94178963 13.2933223,6.01804466 Z" id="Rectangle" fill="#FFFFFF"></path>
            </g>
            <path d="M28,55.956376 L28,85 C28,86.6568542 29.3431458,88 31,88 L89,88 C90.6568542,88 92,86.6568542 92,85 L92,55.9348616 L89.866862,57.4472871 C89.359715,57.8068616 88.753385,58 88.1317003,58 L31.7985895,58 C31.1676926,58 30.5528529,57.8011018 30.0414928,57.4315861 L28,55.956376 Z" id="Rectangle-Copy" stroke="#5E8DC6" stroke-width="2"></path>
            <rect id="Rectangle" fill="#FFFFFF" x="31" y="59" width="57" height="28"></rect>
            <path d="M88.5,59.5 L88.5,86.5" id="Line-4" stroke="#B5CFE9" stroke-linecap="square"></path>
            <path d="M31.5,59.5 L31.5,86.5" id="Line-4-Copy" stroke="#B5CFE9" stroke-linecap="square"></path>
            <g id="Group-2-Copy" filter="url(#filter-2)" transform="translate(75.285254, 39.961697) rotate(-330.000000) translate(-75.285254, -39.961697) translate(66.285254, 32.961697)">
                <rect id="Rectangle" stroke="#FFFFFF" stroke-width="2.16" fill="#6DAAFD" x="-1.08" y="-1.08" width="20.16" height="15.66" rx="1.3824"></rect>
                <path d="M9.87243184,4.32942313 L11.8915485,7.83850866 C12.0819332,8.16938404 11.9680429,8.59194878 11.6371675,8.78233342 C11.5323009,8.84267335 11.4134329,8.87443055 11.2924456,8.87443055 L7.2542123,8.87443055 C6.87247308,8.87443055 6.5630123,8.56496977 6.5630123,8.18323055 C6.5630123,8.06224329 6.59476949,7.94337529 6.65510942,7.83850866 L8.67422609,4.32942313 C8.86461074,3.99854775 9.28717548,3.88465751 9.61805086,4.07504215 C9.72381124,4.13589634 9.81157766,4.22366275 9.87243184,4.32942313 Z" id="Triangle" fill="#FFFFFF" transform="translate(9.273387, 6.428630) rotate(-270.000000) translate(-9.273387, -6.428630) "></path>
            </g>
        </g>
        <g id="Oval-Copy">
            <circle stroke="#6DAAFD" stroke-width="2" stroke-linejoin="square" fill="#FFFFFF" fill-rule="evenodd" cx="93" cy="78" r="11"></circle>
            <circle stroke="#FFFFFF" stroke-width="3" cx="93" cy="78" r="13.5"></circle>
        </g>
        <g id="错" transform="translate(86.000000, 71.000000)" fill-rule="nonzero">
            <rect id="Rectangle" fill="#000000" opacity="0" x="0" y="0" width="14" height="14"></rect>
            <polygon id="Path" fill="#6DAAFD" points="12.2978511 3.58502735 10.3781846 1.66544483 7.01916001 5.02449739 3.6601634 1.66544483 1.7405669 3.5850973 5.09961945 6.9440939 1.74062286 10.3031045 3.66013543 12.2226031 7.01916001 8.8635785 10.3782545 12.2226311 12.2976972 10.3031045 8.93872854 6.9440939"></polygon>
        </g>
    </g>
</svg>