<?xml version="1.0" encoding="UTF-8"?>
<svg width="120px" height="100px" viewBox="0 0 120 100" version="1.1" xmlns="http://www.w3.org/2000/svg" xmlns:xlink="http://www.w3.org/1999/xlink">
    <!-- Generator: Sketch 52.5 (67469) - http://www.bohemiancoding.com/sketch -->
    <title>ic_2</title>
    <desc>Created with Sketch.</desc>
    <g id="ic_2" stroke="none" stroke-width="1" fill="none" fill-rule="evenodd">
        <g id="Group-2-Copy" transform="translate(0.000000, 1.000000)">
            <path d="M105.917064,88.0650212 C106.276723,88.0618905 106.287756,87.5302456 106.469682,87.2603375 C112.487321,78.332468 116,67.5764491 116,56 C116,25.072054 90.927946,0 60,0 C29.072054,0 4,25.072054 4,56 C4,67.3915424 7.40136174,77.9886542 13.2438867,86.831137 C13.5513915,87.296536 13.5520613,88.1779204 14.1865481,88.2126124 C46.8764058,90 88.9613478,88.2126124 105.917064,88.0650212 Z" id="Oval" fill="#F2F9FF"></path>
            <path d="M9,70.8316655 L107.9369,70.8316655" id="Line-3" stroke="#AAC2DE" stroke-linecap="square"></path>
            <path d="M21.8316655,52 L95.8316655,52" id="Line-3-Copy-3" stroke="#AAC2DE" stroke-linecap="square" transform="translate(58.831665, 52.000000) rotate(-90.000000) translate(-58.831665, -52.000000) "></path>
            <polyline id="Line-3-Copy" stroke="#AAC2DE" stroke-linecap="square" points="15 58 18.7847134 61.5631275 101.281381 61.5631275 107 58"></polyline>
            <polyline id="Line-3-Copy-4" stroke="#AAC2DE" stroke-linecap="square" transform="translate(47.915833, 45.500000) rotate(-90.000000) translate(-47.915833, -45.500000) " points="26.4158327 47.4158327 63.104653 47.4158327 69.4158327 43.5841673"></polyline>
            <polyline id="Line-3-Copy-5" stroke="#AAC2DE" stroke-linecap="square" transform="translate(69.920299, 47.000000) scale(-1, 1) rotate(-90.000000) translate(-69.920299, -47.000000) " points="51.920299 48.9158327 83.6091193 48.9158327 87.920299 45.0841673"></polyline>
            <circle id="Oval" fill="#9FBAD9" cx="8" cy="71" r="2"></circle>
            <circle id="Oval-Copy-2" fill="#9FBAD9" cx="14" cy="57" r="2"></circle>
            <path d="M107,60 C108.104569,60 109,59.1045695 109,58 C109,56.8954305 108.104569,56 107,56 C105.895431,56 105,56.8954305 105,58 C105,59.1045695 105.895431,60 107,60 Z" id="Oval-Copy-3" fill="#9FBAD9"></path>
            <circle id="Oval-Copy-6" fill="#9FBAD9" cx="59" cy="13" r="2"></circle>
            <circle id="Oval-Copy-7" fill="#9FBAD9" cx="45" cy="23" r="2"></circle>
            <circle id="Oval-Copy-8" fill="#9FBAD9" cx="72" cy="29" r="2"></circle>
            <circle id="Oval-Copy-4" fill="#9FBAD9" cx="109" cy="71" r="2"></circle>
            <path d="M18,88 L106.281381,88" id="Line-2" stroke="#4D7BB3" stroke-width="2" opacity="0.429999977" stroke-linecap="round" stroke-linejoin="round"></path>
            <path d="M0.811775674,88 L14,88" id="Line-2-Copy" stroke="#4D7BB3" stroke-width="2" opacity="0.429999977" stroke-linecap="round" stroke-linejoin="round"></path>
            <path d="M109.811776,88 L119.74553,88" id="Line-2-Copy-2" stroke="#4D7BB3" stroke-width="2" opacity="0.429999977" stroke-linecap="round" stroke-linejoin="round"></path>
            <path d="M26.8117757,98 L33.1515974,98" id="Line-2-Copy-4" stroke="#4D7BB3" stroke-width="2" opacity="0.429999977" stroke-linecap="round" stroke-linejoin="round"></path>
            <path d="M37.8117757,98 L48.1841026,98 C49.3193341,96.4287493 50.4187667,95.643124 51.4824001,95.643124 C52.5460336,95.643124 53.5745585,96.4287493 54.5679749,98 L70,98" id="Line-2-Copy-6" stroke="#4D7BB3" stroke-width="2" opacity="0.429999977" stroke-linecap="round" stroke-linejoin="round"></path>
            <path d="M81.8117757,98 L88.1515974,98" id="Line-2-Copy-5" stroke="#4D7BB3" stroke-width="2" opacity="0.429999977" stroke-linecap="round" stroke-linejoin="round"></path>
            <g id="Group" transform="translate(27.000000, 38.000000)">
                <rect id="Rectangle" stroke="#5E8DC6" stroke-width="2" fill="#FFFFFF" x="1" y="1" width="64" height="49" rx="4"></rect>
                <rect id="Rectangle" fill="#C7E3FF" x="7" y="7" width="24" height="20" rx="1"></rect>
                <rect id="Rectangle-Copy" stroke="#FFFFFF" stroke-width="2" fill="#6DAAFD" x="34" y="6" width="26" height="12" rx="1"></rect>
                <rect id="Rectangle-Copy-2" fill="#C7E3FF" x="35" y="21" width="24" height="24" rx="1"></rect>
                <rect id="Rectangle-Copy-3" stroke="#FFFFFF" stroke-width="2" fill="#6DAAFD" x="6" y="30" width="26" height="16" rx="1"></rect>
            </g>
        </g>
    </g>
</svg>