<?xml version="1.0" encoding="UTF-8"?>
<svg width="120px" height="100px" viewBox="0 0 120 100" version="1.1" xmlns="http://www.w3.org/2000/svg" xmlns:xlink="http://www.w3.org/1999/xlink">
    <!-- Generator: Sketch 53.2 (72643) - https://sketchapp.com -->
    <title>ic_handle</title>
    <desc>Created with Sketch.</desc>
    <defs>
        <rect id="path-1" x="0" y="0" width="66" height="41" rx="3"></rect>
    </defs>
    <g id="ic_handle" stroke="none" stroke-width="1" fill="none" fill-rule="evenodd">
        <rect id="Rectangle" fill-opacity="0" fill="#D8D8D8" x="0" y="0" width="120" height="100"></rect>
        <g id="Group-5" transform="translate(0.000000, 1.000000)">
            <g id="Group">
                <path d="M105.917064,88.0650212 C106.276723,88.0618905 106.287756,87.5302456 106.469682,87.2603375 C112.487321,78.332468 116,67.5764491 116,56 C116,25.072054 90.927946,2.13162821e-14 60,2.13162821e-14 C29.072054,2.13162821e-14 4,25.072054 4,56 C4,67.3915424 7.40136174,77.9886542 13.2438867,86.831137 C13.5513915,87.296536 13.5520613,88.1779204 14.1865481,88.2126124 C46.8764058,90 88.9613478,88.2126124 105.917064,88.0650212 Z" id="Oval" fill="#F2F9FF"></path>
                <path d="M93,65.3316655 L109.4369,65.3316655 L109.4369,66.3316655 L93,66.3316655 L93,65.3316655 Z M9.5,66.3316655 L9.5,65.3316655 L29,65.3316655 L29,66.3316655 L9.5,66.3316655 Z M19.5863825,57.0631275 L15.2932145,53.0213142 L15.9786858,52.2932145 L19.9830443,56.0631275 L29,56.0631275 L29,57.0631275 L19.5863825,57.0631275 Z M50.5185459,39 L50.5185459,29.4510782 L46.5,22.8320856 L47.3547949,22.3131196 L51.5185459,29.1712812 L51.5185459,39 L50.5185459,39 Z M60.3316655,15.5 L61.3316655,15.5 L61.3316655,39 L60.3316655,39 L60.3316655,15.5 Z M68.5044662,33.1210984 L72.7945638,28.2941161 L73.5420157,28.9584321 L69.5044662,33.5012611 L69.5044662,39 L68.5044662,39 L68.5044662,33.1210984 Z M93,56.0631275 L102.138357,56.0631275 L108.159954,52.3112224 L108.688778,53.1599542 L102.424404,57.0631275 L93,57.0631275 L93,56.0631275 Z" id="Shape" fill="#AAC2DE" fill-rule="nonzero"></path>
                <circle id="Oval" fill="#9FBAD9" cx="9" cy="66" r="2"></circle>
                <circle id="Oval-Copy-2" fill="#9FBAD9" cx="15" cy="52" r="2"></circle>
                <path d="M108,55 C109.104569,55 110,54.1045695 110,53 C110,51.8954305 109.104569,51 108,51 C106.895431,51 106,51.8954305 106,53 C106,54.1045695 106.895431,55 108,55 Z" id="Oval-Copy-3" fill="#9FBAD9"></path>
                <circle id="Oval-Copy-6" fill="#9FBAD9" cx="60" cy="14" r="2"></circle>
                <circle id="Oval-Copy-7" fill="#9FBAD9" cx="46" cy="22" r="2"></circle>
                <circle id="Oval-Copy-8" fill="#9FBAD9" cx="73" cy="29" r="2"></circle>
                <circle id="Oval-Copy-4" fill="#9FBAD9" cx="110" cy="66" r="2"></circle>
                <path d="M18,88 L106.281381,88" id="Line-2" stroke="#4D7BB3" stroke-width="2" opacity="0.5" stroke-linecap="round"></path>
                <path d="M0.811775674,88 L14,88" id="Line-2-Copy" stroke="#4D7BB3" stroke-width="2" opacity="0.5" stroke-linecap="round"></path>
                <path d="M109.811776,88 L119.74553,88" id="Line-2-Copy-2" stroke="#4D7BB3" stroke-width="2" opacity="0.5" stroke-linecap="round"></path>
                <path d="M29.8117757,98 L36.1515974,98" id="Line-2-Copy-4" stroke="#4D7BB3" stroke-width="2" opacity="0.5" stroke-linecap="round"></path>
                <path d="M40.8117757,98 L51.1841026,98 C52.3193341,96.4287493 53.4187667,95.643124 54.4824001,95.643124 C55.5460336,95.643124 56.5745585,96.4287493 57.5679749,98 L73,98" id="Line-2-Copy-6" stroke="#4D7BB3" stroke-width="2" opacity="0.5" stroke-linecap="round"></path>
                <path d="M84.8117757,98 L91.1515974,98" id="Line-2-Copy-5" stroke="#4D7BB3" stroke-width="2" opacity="0.5" stroke-linecap="round"></path>
            </g>
            <path d="M57.1956345,83.6305583 L58,78 L64,78 L64.8043655,83.6305583 C64.9220811,84.4545679 65.5378494,85.1195221 66.3504035,85.3000897 L74,87 L74,89 L48,89 L48,87 L55.6495965,85.3000897 C56.4621506,85.1195221 57.0779189,84.4545679 57.1956345,83.6305583 Z" id="Path" fill="#78A4DA"></path>
            <g id="Group-2" transform="translate(28.000000, 38.000000)">
                <mask id="mask-2" fill="white">
                    <use xlink:href="#path-1"></use>
                </mask>
                <rect stroke="#5695E1" stroke-width="2" x="1" y="1" width="64" height="39" rx="3"></rect>
                <rect id="Rectangle" fill="#E3F1FF" mask="url(#mask-2)" x="5" y="5" width="55" height="31"></rect>
            </g>
        </g>
    </g>
</svg>