<?xml version="1.0" encoding="UTF-8"?>
<svg width="82px" height="67px" viewBox="0 0 82 67" version="1.1" xmlns="http://www.w3.org/2000/svg" xmlns:xlink="http://www.w3.org/1999/xlink">
    <!-- Generator: Sketch 51.3 (57544) - http://www.bohemiancoding.com/sketch -->
    <title>Group 5 Copy</title>
    <desc>Created with Sketch.</desc>
    <defs></defs>
    <g id="060" stroke="none" stroke-width="1" fill="none" fill-rule="evenodd">
        <g id="3.项目尺寸选择" transform="translate(-559.000000, -352.000000)">
            <g id="Group-4" transform="translate(465.000000, 259.000000)">
                <g id="Group-5-Copy" transform="translate(95.000000, 93.000000)">
                    <g id="Group">
                        <path d="M72.6113758,58.7100141 C72.8511484,58.707927 72.8585039,58.3534971 72.9797877,58.1735584 C76.9915472,52.2216453 79.3333333,45.0509661 79.3333333,37.3333333 C79.3333333,16.7147027 62.6186307,0 42,0 C21.3813693,0 4.66666667,16.7147027 4.66666667,37.3333333 C4.66666667,44.9276949 6.93424116,51.9924362 10.8292578,57.8874247 C11.034261,58.1976907 11.0347075,58.7852803 11.4576988,58.8084082 C33.2509372,60 61.3075652,58.8084082 72.6113758,58.7100141 Z" id="Oval" fill="#F2F9FF"></path>
                        <path d="M14.1467209,10.9308771 C15.9573918,11.2067392 17.0685029,11.8734058 17.4800542,12.9308771 C18.2278172,11.8734058 19.3389283,11.2067392 20.8133876,10.9308771" id="Line-6" stroke="#4D7BB3" stroke-width="1.3" stroke-linecap="round" stroke-linejoin="round" transform="translate(17.480054, 11.930877) rotate(-17.000000) translate(-17.480054, -11.930877) "></path>
                        <path d="M20.8133876,13.5975438 C22.6240585,13.8734058 23.7351696,14.5400725 24.1467209,15.5975438 C24.8944838,14.5400725 26.005595,13.8734058 27.4800542,13.5975438" id="Line-6-Copy" stroke="#4D7BB3" stroke-width="1.3" stroke-linecap="round" stroke-linejoin="round" transform="translate(24.146721, 14.597544) rotate(-17.000000) translate(-24.146721, -14.597544) "></path>
                        <path d="M12,58.6666667 L70.8542538,58.6666667" id="Line-2" stroke="#4D7BB3" stroke-width="2" opacity="0.5" stroke-linecap="round"></path>
                        <path d="M0.541183783,58.6666667 L9.33333333,58.6666667" id="Line-2-Copy" stroke="#4D7BB3" stroke-width="2" opacity="0.5" stroke-linecap="round"></path>
                        <path d="M73.2078504,58.6666667 L79.8303532,58.6666667" id="Line-2-Copy-2" stroke="#4D7BB3" stroke-width="2" opacity="0.5" stroke-linecap="round"></path>
                        <path d="M19.8745171,65.3333333 L24.1010649,65.3333333" id="Line-2-Copy-4" stroke="#4D7BB3" stroke-width="2" opacity="0.5" stroke-linecap="round"></path>
                        <path d="M27.2078504,65.3333333 L34.122735,65.3333333 C34.8795561,64.2858329 35.6125111,63.7620827 36.3216001,63.7620827 C37.0306891,63.7620827 37.7163724,64.2858329 38.3786499,65.3333333 L48.6666667,65.3333333" id="Line-2-Copy-6" stroke="#4D7BB3" stroke-width="2" opacity="0.5" stroke-linecap="round"></path>
                        <path d="M56.5411838,65.3333333 L60.7677316,65.3333333" id="Line-2-Copy-5" stroke="#4D7BB3" stroke-width="2" opacity="0.5" stroke-linecap="round"></path>
                    </g>
                    <path d="M39.5289679,55.2972249 L40,52 L44,52 L44.4710321,55.2972249 C44.5887478,56.1212346 45.2045161,56.7861888 46.0170702,56.9667563 L50.6666667,58 L50.6666667,59.3333333 L33.3333333,59.3333333 L33.3333333,58 L37.9829298,56.9667563 C38.7954839,56.7861888 39.4112522,56.1212346 39.5289679,55.2972249 Z" id="Path" fill="#78A4DA"></path>
                    <g id="Group-2" transform="translate(20.000000, 25.333333)">
                        <rect id="Rectangle" stroke="#5695E1" stroke-width="2" fill="#FFFFFF" x="1" y="1" width="42" height="25.3333333" rx="3"></rect>
                        <rect id="Rectangle" fill="#E3F1FF" x="3.33333333" y="3.33333333" width="36.6666667" height="20.6666667"></rect>
                    </g>
                </g>
            </g>
        </g>
    </g>
</svg>