<?xml version="1.0" encoding="UTF-8"?>
<svg width="18px" height="17px" viewBox="0 0 18 17" version="1.1" xmlns="http://www.w3.org/2000/svg" xmlns:xlink="http://www.w3.org/1999/xlink">
    <!-- Generator: Sketch 49.2 (51160) - http://www.bohemiancoding.com/sketch -->
    <title>Group 15</title>
    <desc>Created with Sketch.</desc>
    <defs></defs>
    <g id="媒资库" stroke="none" stroke-width="1" fill="none" fill-rule="evenodd">
        <g id="视频详情" transform="translate(-672.000000, -488.000000)" fill="#ffffff" fill-rule="nonzero">
            <g id="Group-15" transform="translate(672.000000, 488.000000)">
                <path d="M17.2506122,11.1269388 C16.8355102,11.1269388 16.5012245,11.4612245 16.5012245,11.8763265 L16.5012245,15.4910204 L1.49877551,15.4910204 L1.49877551,11.8763265 C1.49877551,11.4612245 1.1644898,11.1269388 0.749387755,11.1269388 C0.334285714,11.1269388 0,11.4612245 0,11.8763265 L0,16.2404082 C0,16.6555102 0.334285714,16.9897959 0.749387755,16.9897959 L17.2506122,16.9897959 C17.6657143,16.9897959 18,16.6555102 18,16.2404082 L18,11.8763265 C18,11.4612245 17.6657143,11.1269388 17.2506122,11.1269388 Z" id="Shape"></path>
                <path d="M9.54734694,12.9159184 L13.8563265,8.28 C14.1391837,7.97510204 14.1208163,7.50122449 13.8159184,7.21836735 C13.5110204,6.9355102 13.0371429,6.95387755 12.7579592,7.25877551 L9.74938776,10.495102 L9.74938776,0.753061224 C9.74938776,0.337959184 9.41510204,0.00367346939 9,0.00367346939 C8.58489796,0.00367346939 8.25061224,0.337959184 8.25061224,0.753061224 L8.25061224,10.4987755 L5.24204082,7.26244898 C4.95918367,6.95755102 4.48530612,6.94285714 4.18040816,7.22204082 C3.8755102,7.50489796 3.86081633,7.97877551 4.14,8.28367347 L8.44897959,12.9159184 C8.87142857,13.3420408 9.38938776,13.1069388 9.54734694,12.9159184 Z" id="Shape"></path>
            </g>
        </g>
    </g>
</svg>