<?xml version="1.0" standalone="no"?><!DOCTYPE svg PUBLIC "-//W3C//DTD SVG 1.1//EN" "http://www.w3.org/Graphics/SVG/1.1/DTD/svg11.dtd"><svg t="1537342212718" class="icon" style="" viewBox="0 0 1025 1024" version="1.1" xmlns="http://www.w3.org/2000/svg" p-id="1374" xmlns:xlink="http://www.w3.org/1999/xlink" width="16.015625" height="16"><defs><style type="text/css"></style></defs><path d="M448.768 832l-212.096 0 217.536-217.536L408.96 569.216l-217.216 217.216L192.768 576c0-17.664-14.336-32-32-32-17.664 0-32 14.336-32 32l0 288c0 9.472 3.904 17.088 10.112 22.4C144.64 892.288 152.704 896 161.664 896l287.104 0c17.664 0 32-14.336 32-32C480.768 846.336 466.432 832 448.768 832zM896.768 0l-768 0c-70.656 0-128 57.28-128 128l0 768c0 70.72 57.344 128 128 128l768 0c70.72 0 128-57.28 128-128L1024.768 128C1024.768 57.28 967.424 0 896.768 0zM960.768 896c0 35.328-28.672 64-64 64l-768 0c-35.328 0-64-28.672-64-64L64.768 128c0-35.328 28.672-64 64-64l768 0c35.328 0 64 28.672 64 64L960.768 896zM863.872 128 576.768 128c-17.664 0-32 14.336-32 32 0 17.664 14.336 32 32 32l212.096 0L571.328 409.536l45.248 45.248 217.216-217.216L832.768 448c0 17.664 14.336 32 32 32s32-14.336 32-32L896.768 160c0-9.472-3.904-17.152-10.112-22.4C880.832 131.712 872.768 128 863.872 128z" p-id="1375" fill="#ffffff"></path></svg>