<?xml version="1.0" standalone="no"?><!DOCTYPE svg PUBLIC "-//W3C//DTD SVG 1.1//EN" "http://www.w3.org/Graphics/SVG/1.1/DTD/svg11.dtd"><svg t="1537342205036" class="icon" style="" viewBox="0 0 1024 1024" version="1.1" xmlns="http://www.w3.org/2000/svg" p-id="1159" xmlns:xlink="http://www.w3.org/1999/xlink" width="16" height="16"><defs><style type="text/css"></style></defs><path d="M448.000489 544.000245h-288.001223c-19.198777 0-31.999266 12.799511-31.999266 31.999266 0 19.200734 12.800489 32.001223 32.000245 32.001223h211.200244L153.6 825.599266l44.799755 44.799756 217.60049-217.600489v211.200244c0 19.200734 12.799511 32.000245 32.000244 32.000245 19.198777 0 31.999266-12.799511 31.999266-32.000245V576.000489c0-9.600367-3.200122-16.000611-9.599388-22.400856-6.400245-6.399266-12.800489-9.599389-22.400856-9.599388z m415.999266-128H652.800489L870.4 198.399755l-44.799755-44.799755-217.60049 217.600489V160.000245c0-19.199755-12.799511-32.000245-31.999266-32.000245-19.200734 0-32.001223 12.800489-32.001223 32.000245v288.000244c0 9.599389 3.2011 15.999633 9.600367 22.399878 6.400245 6.399266 12.800489 9.599389 22.400856 9.599388h287.999266c19.200734 0 32.000245-12.799511 32.000245-32.000244 0-15.999633-12.799511-31.999266-32.000245-31.999266zM896 0h-768C57.600245 0 0 57.600245 0 128v768C0 966.399755 57.600245 1024 128 1024h768C966.399755 1024 1024 966.399755 1024 896v-768C1024 57.600245 966.399755 0 896 0z m64.000489 896c0 35.199389-28.800122 64.000489-64.000489 64.000489h-768c-35.199389 0-64.000489-28.800122-64.000489-64.000489v-768c0-35.199389 28.800122-64.000489 64.000489-64.000489h768c35.199389 0 64.000489 28.800122 64.000489 64.000489v768z" p-id="1160" fill="#ffffff"></path></svg>