<?xml version="1.0" standalone="no"?><!DOCTYPE svg PUBLIC "-//W3C//DTD SVG 1.1//EN" "http://www.w3.org/Graphics/SVG/1.1/DTD/svg11.dtd"><svg t="1537163177704" class="icon" style="" viewBox="0 0 1025 1024" version="1.1" xmlns="http://www.w3.org/2000/svg" p-id="1042" xmlns:xlink="http://www.w3.org/1999/xlink" width="16.015625" height="16"><defs><style type="text/css"></style></defs><path d="M929.483 405.567l-69.316 40.37c3.907 21.193 6.444 42.85 6.444 65.176s-2.537 43.987-6.444 65.177l69.316 40.37c28.335 16.47 38.04 52.993 21.686 81.531l-59.205 103.42c-16.353 28.538-52.554 38.33-80.887 21.832l-70.014-40.779c-32.708 28.098-69.93 51.04-111.263 65.816v50.66c0 32.97-26.497 59.697-59.203 59.697h-118.4c-32.706 0-59.232-26.727-59.232-59.697v-50.66c-41.334-14.776-78.525-37.718-111.231-65.816l-70.044 40.779c-28.304 16.497-64.507 6.706-80.887-21.832L71.631 698.19c-16.383-28.538-6.646-65.06 21.657-81.53l69.314-40.37c-3.876-21.191-6.442-42.852-6.442-65.178s2.566-43.983 6.442-65.176l-69.314-40.37c-28.303-16.47-38.04-52.991-21.657-81.529l59.171-103.423c16.38-28.535 52.583-38.33 80.887-21.83l70.044 40.747c32.706-28.071 69.9-51.04 111.231-65.789v-50.66c0-32.97 26.526-59.698 59.231-59.698h118.403c32.706 0 59.203 26.729 59.203 59.698v50.66c41.333 14.749 78.555 37.718 111.263 65.789l70.014-40.747c28.334-16.5 64.537-6.705 80.887 21.83l59.205 103.423c16.353 28.537 6.648 65.06-21.687 81.529z m-44.365-77.537l-29.614-51.709c-8.162-14.283-26.29-19.15-40.459-10.931l-82.23 47.892c-41.768-47.482-98.175-81.559-162.213-94.644v-65.703c0-16.497-13.261-29.849-29.613-29.849h-59.203c-16.352 0-29.587 13.353-29.587 29.85v65.702c-64.067 13.085-120.474 47.162-162.216 94.644l-82.256-47.892c-14.136-8.219-32.27-3.352-40.43 10.931l-29.615 51.71c-8.165 14.255-3.325 32.53 10.846 40.78l82.58 48.065c-9.827 29.703-15.713 61.213-15.713 94.239 0 33.028 5.888 64.538 15.712 94.239l-82.577 48.068c-14.17 8.249-19.006 26.497-10.846 40.778l29.614 51.71c8.163 14.284 26.293 19.151 40.43 10.902l82.23-47.863c41.769 47.484 98.176 81.53 162.243 94.646v65.7c0 16.47 13.236 29.85 29.588 29.85h59.202c16.352 0 29.613-13.38 29.613-29.85v-65.7c64.04-13.115 120.44-47.162 162.213-94.646l82.23 47.863c14.17 8.25 32.3 3.382 40.459-10.903L885.12 694.2c8.164-14.28 3.295-32.53-10.845-40.778l-82.608-48.068c9.851-29.701 15.742-61.211 15.742-94.24 0-33.024-5.89-64.535-15.742-94.238l82.608-48.066c14.136-8.248 19.007-26.525 10.843-40.78zM511.402 660.36c-81.762 0-148.022-66.81-148.022-149.244 0-82.432 66.258-149.24 148.022-149.24 81.733 0 147.987 66.808 147.987 149.24 0 82.434-66.254 149.244-147.987 149.244z m0-238.789c-49.058 0-88.816 40.079-88.816 89.544 0 49.465 39.758 89.545 88.816 89.545 49.056 0 88.816-40.08 88.816-89.545s-39.761-89.544-88.816-89.544z" p-id="1043" fill="#ffffff"></path></svg>