<?xml version="1.0" standalone="no"?><!DOCTYPE svg PUBLIC "-//W3C//DTD SVG 1.1//EN" "http://www.w3.org/Graphics/SVG/1.1/DTD/svg11.dtd"><svg t="1533956544796" class="icon" style="" viewBox="0 0 1024 1024" version="1.1" xmlns="http://www.w3.org/2000/svg" p-id="1098" xmlns:xlink="http://www.w3.org/1999/xlink" width="20" height="20"><defs><style type="text/css"></style></defs><path d="M597.333333 348.672V170.666667a42.666667 42.666667 0 0 0-66.304-35.498667l-88.277333 58.88 61.482667 61.482667 7.765333 7.808 85.333333 85.333333zM128 725.333333h157.738667l245.248 163.498667a42.837333 42.837333 0 0 0 43.818666 2.133333A42.666667 42.666667 0 0 0 597.333333 853.333333v-195.669333l125.354667 125.354667A317.824 317.824 0 0 1 682.666667 810.666667v85.333333a439.466667 439.466667 0 0 0 95.488-57.514667l87.68 87.68 60.330666-60.330666-768-768-60.330666 60.330666L238.336 298.666667H128a42.666667 42.666667 0 0 0-42.666667 42.666666v341.333334a42.666667 42.666667 0 0 0 42.666667 42.666666z m42.666667-341.333333h128a42.666667 42.666667 0 0 0 19.712-5.290667L512 572.330667v201.301333l-189.653333-126.464A42.922667 42.922667 0 0 0 298.666667 640H170.666667V384z m512 50.005333l84.949333 84.949334c0.085333-2.304 0.384-4.650667 0.384-6.954667 0-75.562667-33.066667-166.4-85.333333-213.333333v135.338666z m228.010666 228.010667A411.648 411.648 0 0 0 938.624 512c0-174.549333-105.472-317.994667-255.957333-384v85.333333c101.845333 59.136 170.624 172.672 170.624 298.666667a345.6 345.6 0 0 1-10.410667 82.218667l67.797333 67.797333z" fill="#ffffff" p-id="1099"></path></svg>