<?xml version="1.0" encoding="UTF-8"?>
<svg width="47px" height="14px" viewBox="0 0 47 14" version="1.1" xmlns="http://www.w3.org/2000/svg" xmlns:xlink="http://www.w3.org/1999/xlink">
    <!-- Generator: Sketch 53.2 (72643) - https://sketchapp.com -->
    <title>编组 10</title>
    <desc>Created with Sketch.</desc>
    <g id="页面-1" stroke="none" stroke-width="1" fill="none" fill-rule="evenodd">
        <g id="对话机器人交互" transform="translate(-767.000000, -318.000000)">
            <g id="输入框-输入备份" transform="translate(151.000000, 164.000000)">
                <g id="编组-10" transform="translate(616.000000, 151.000000)">
                    <text id="发送" font-family="PingFangSC-Regular, PingFang SC" font-size="14" font-weight="normal" letter-spacing="0.1" fill="#000000" fill-opacity="0.25">
                        <tspan x="19" y="15">发送</tspan>
                    </text>
                    <g id="回车" transform="translate(0.000000, 4.000000)" fill="#BFBFBF" fill-rule="nonzero">
                        <path d="M3.13270664,11.9341856 C3.00586065,11.9341856 2.88120164,11.8860716 2.78497363,11.7898436 L0.16057363,9.16544362 C-0.0318823773,8.97298762 -0.0318823773,8.66243363 0.16057363,8.46997763 L0.164947638,8.46560362 L2.78497363,5.84557762 C2.97742964,5.65312161 3.28798363,5.65312161 3.48043963,5.84557762 C3.67289564,6.03803363 3.67289564,6.34858761 3.48043963,6.54104362 L1.20377264,8.81771061 L3.48043963,11.0943776 C3.67289564,11.2868336 3.67289564,11.5973876 3.48043963,11.7898436 C3.38421163,11.8860716 3.25955264,11.9341856 3.13270664,11.9341856 Z" id="路径"></path>
                        <path d="M8.98949264,9.30978563 L0.503932631,9.30978563 C0.232744632,9.30978563 0.0118576389,9.08889864 0.0118576389,8.81771061 C0.0118576389,8.54652259 0.232744632,8.32563562 0.503932631,8.32563562 L8.98949264,8.32563562 C10.6472387,8.32563562 11.9966176,6.97625662 11.9966176,5.31851063 L11.9966176,0.507110621 C11.9966176,0.235922622 12.2175046,0.0150356284 12.4886927,0.0150356284 C12.7598807,0.0150356284 12.9807676,0.235922622 12.9807676,0.507110621 L12.9807676,5.31851063 C12.9807676,6.38139263 12.5652376,7.38303863 11.8085356,8.13755362 C11.0518336,8.89425563 10.0501876,9.30978563 8.98949264,9.30978563 Z" id="路径"></path>
                    </g>
                </g>
            </g>
        </g>
    </g>
</svg>