<?xml version="1.0" encoding="UTF-8"?>
<svg width="34px" height="34px" viewBox="0 0 34 34" version="1.1" xmlns="http://www.w3.org/2000/svg" xmlns:xlink="http://www.w3.org/1999/xlink">
    <!-- Generator: Sketch 53.2 (72643) - https://sketchapp.com -->
    <title>编组</title>
    <desc>Created with Sketch.</desc>
    <g id="页面-1" stroke="none" stroke-width="1" fill="none" fill-rule="evenodd">
        <g id="对话机器人交互" transform="translate(-827.000000, -308.000000)">
            <g id="输入框-输入备份" transform="translate(151.000000, 164.000000)">
                <g id="编组" transform="translate(676.000000, 144.000000)">
                    <path d="M17,0 L17,0 C26.3888407,-1.72470207e-15 34,7.61115925 34,17 L34,17 C34,26.3888407 26.3888407,34 17,34 L17,34 C7.61115925,34 1.14980138e-15,26.3888407 0,17 L0,17 C-1.14980138e-15,7.61115925 7.61115925,1.72470207e-15 17,0 Z" id="矩形备份-2" fill="#0091FF"></path>
                    <g id="发送" transform="translate(11.000000, 9.000000)" fill="#FFFFFF" fill-rule="nonzero">
                        <polygon id="路径" points="0 16 1.664 8.592 10.864 8.016 1.664 7.392 0 0 16 8"></polygon>
                    </g>
                </g>
            </g>
        </g>
    </g>
</svg>