<?xml version="1.0" encoding="UTF-8"?>
<svg width="19px" height="18px" viewBox="0 0 19 18" version="1.1" xmlns="http://www.w3.org/2000/svg" xmlns:xlink="http://www.w3.org/1999/xlink">
    <!-- Generator: Sketch 58 (84663) - https://sketch.com -->
    <title>编组</title>
    <desc>Created with Sketch.</desc>
    <g id="页面1" stroke="none" stroke-width="1" fill="none" fill-rule="evenodd">
        <g id="画板" transform="translate(-321.000000, -1685.000000)" fill="#2584D6" fill-rule="nonzero">
            <g id="编组" transform="translate(321.000000, 1685.000000)">
                <path d="M16.0125,-5.15143483e-14 L2.3625,-5.15143483e-14 C1.05832698,0.00144667135 0.00144667135,1.05832698 0,2.3625 L0,11.692275 C0,12.9948 1.059975,14.054775 2.3625,14.054775 L9.58125,14.054775 L13.2783,17.751825 C13.432125,17.90565 13.633725,17.9823 13.835325,17.9823 C14.036925,17.9823 14.238525,17.90565 14.39235,17.751825 C14.6997758,17.4443064 14.6997758,16.9458186 14.39235,16.6383 L10.61865,12.8646 C10.3727828,12.6172832 10.0381336,12.4786969 9.6894,12.479775 L2.3625,12.479775 C1.928325,12.479775 1.575,12.12645 1.575,11.692275 L1.575,2.3625 C1.575,1.928325 1.928325,1.575 2.3625,1.575 L16.0125,1.575 C16.446675,1.575 16.8,1.928325 16.8,2.3625 L16.8,11.692275 C16.8,12.12645 16.446675,12.479775 16.0125,12.479775 L14.228025,12.479775 C13.7931008,12.479775 13.440525,12.8323508 13.440525,13.267275 C13.440525,13.7021992 13.7931008,14.054775 14.228025,14.054775 L16.0125,14.054775 C17.315025,14.054775 18.375,12.9948 18.375,11.692275 L18.375,2.3625 C18.375,1.059975 17.315025,-5.15143483e-14 16.0125,-5.15143483e-14 Z" id="路径"></path>
                <path d="M4.9875,5.76828563 L13.3875,5.76828563 C13.6774495,5.76828563 13.9125,5.47597555 13.9125,5.11539281 C13.9125,4.75481008 13.6774495,4.4625 13.3875,4.4625 L4.9875,4.4625 C4.69755051,4.4625 4.46250002,4.75481008 4.46250002,5.11539281 C4.46250002,5.47597555 4.69755051,5.76828563 4.9875,5.76828563 Z M4.9875,9.82275 L13.3875,9.82275 C13.6774495,9.82275 13.9125,9.53043993 13.9125,9.16985719 C13.9125,8.80927444 13.6774495,8.51696437 13.3875,8.51696437 L4.9875,8.51696437 C4.69755051,8.51696437 4.4625,8.80927444 4.4625,9.16985719 C4.4625,9.53043993 4.69755051,9.82275 4.9875,9.82275 Z" id="形状"></path>
            </g>
        </g>
    </g>
</svg>