<?xml version="1.0" encoding="UTF-8"?>
<svg width="18px" height="21px" viewBox="0 0 18 21" version="1.1" xmlns="http://www.w3.org/2000/svg" xmlns:xlink="http://www.w3.org/1999/xlink">
    <!-- Generator: Sketch 58 (84663) - https://sketch.com -->
    <title>形状</title>
    <desc>Created with Sketch.</desc>
    <g id="页面1" stroke="none" stroke-width="1" fill="none" fill-rule="evenodd">
        <g id="画板" transform="translate(-74.000000, -1683.000000)" fill="#2584D6" fill-rule="nonzero">
            <path d="M89.3,1683 L76.7,1683 C75.20825,1683 74,1684.17469 74,1685.625 L74,1701.375 C74,1702.82531 75.20825,1704 76.7,1704 L89.3,1704 C90.79175,1704 92,1702.82531 92,1701.375 L92,1685.625 C92,1684.17469 90.79175,1683 89.3,1683 Z M90.2,1701.15 C90.2,1701.61962 89.79725,1702 89.3,1702 L76.7,1702 C76.20275,1702 75.8,1701.61963 75.8,1701.15 L75.8,1685.85 C75.8,1685.38038 76.20275,1685 76.7,1685 L89.3,1685 C89.79725,1685 90.2,1685.38037 90.2,1685.85 L90.2,1701.15 L90.2,1701.15 Z M86.6,1696.2 L79.4,1696.2 C78.9029437,1696.2 78.5,1696.60294 78.5,1697.1 C78.5,1697.59706 78.9029437,1698 79.4,1698 L86.6,1698 C87.0970563,1698 87.5,1697.59706 87.5,1697.1 C87.5,1696.60294 87.0970563,1696.2 86.6,1696.2 Z M86.6,1692.6 L79.4,1692.6 C78.9029975,1692.60008 78.5001378,1693.003 78.5001378,1693.5 C78.5001378,1693.997 78.9029975,1694.39992 79.4,1694.4 L86.6,1694.4 C87.0970025,1694.39992 87.4998622,1693.997 87.4998622,1693.5 C87.4998622,1693.003 87.0970025,1692.60008 86.6,1692.6 Z M86.6,1689 L79.4,1689 C78.9029975,1689.00008 78.5001378,1689.403 78.5001378,1689.9 C78.5001378,1690.397 78.9029975,1690.79992 79.4,1690.8 L86.6,1690.8 C87.0970025,1690.79992 87.4998622,1690.397 87.4998622,1689.9 C87.4998622,1689.403 87.0970025,1689.00008 86.6,1689 L86.6,1689 Z" id="形状"></path>
        </g>
    </g>
</svg>