<?xml version="1.0" encoding="UTF-8"?>
<svg width="88px" height="88px" viewBox="0 0 88 88" version="1.1" xmlns="http://www.w3.org/2000/svg" xmlns:xlink="http://www.w3.org/1999/xlink">
    <defs>
        <circle id="path-1" cx="44" cy="42" r="34"></circle>
        <filter x="-23.5%" y="-20.6%" width="147.1%" height="147.1%" filterUnits="objectBoundingBox" id="filter-2">
            <feMorphology radius="3" operator="dilate" in="SourceAlpha" result="shadowSpreadOuter1"></feMorphology>
            <feOffset dx="0" dy="2" in="shadowSpreadOuter1" result="shadowOffsetOuter1"></feOffset>
            <feGaussianBlur stdDeviation="2" in="shadowOffsetOuter1" result="shadowBlurOuter1"></feGaussianBlur>
            <feColorMatrix values="0 0 0 0 0   0 0 0 0 0   0 0 0 0 0  0 0 0 0.05 0" type="matrix" in="shadowBlurOuter1"></feColorMatrix>
        </filter>
    </defs>
    <g id="设计稿-9.26" stroke="none" stroke-width="1" fill="none" fill-rule="evenodd">
        <g id="选题板-本地内容" transform="translate(-1178.000000, -586.000000)">
            <g id="编组-4" transform="translate(1178.000000, 586.000000)">
                <g id="椭圆形">
                    <use fill="black" fill-opacity="1" filter="url(#filter-2)" xlink:href="#path-1"></use>
                    <use fill="#2584D6" fill-rule="evenodd" xlink:href="#path-1"></use>
                </g>
                <g id="pen_2" transform="translate(28.000000, 26.000000)" fill-rule="nonzero">
                    <rect id="矩形" fill="#000000" opacity="0" x="0" y="0" width="32" height="32"></rect>
                    <path d="M23.3605,9.8195 L19.138,5.605 L6.469,18.249 L10.692,22.4635 L23.3605,9.8195 L23.3605,9.8195 Z M27.5835,5.605 C27.8633656,5.32583883 28.0206519,4.94679197 28.0206519,4.5515 C28.0206519,4.15620803 27.8633656,3.77716117 27.5835,3.498 L25.4715,1.3905 C24.887982,0.808496654 23.943518,0.808496654 23.36,1.3905 L20.193,4.5515 L24.416,8.766 L27.5835,5.605 L27.5835,5.605 Z M30.5,28 L1.5,28 C0.671572875,28 1.01453063e-16,28.6715729 0,29.5 C-1.01453063e-16,30.3284271 0.671572875,31 1.5,31 L30.5,31 C31.3284271,31 32,30.3284271 32,29.5 C32,28.6715729 31.3284271,28 30.5,28 L30.5,28 Z M5.4045,19.302 L3.999,24.92 L9.628,23.517 L5.4045,19.302 L5.4045,19.302 Z" id="形状" fill="#FFFFFF"></path>
                </g>
            </g>
        </g>
    </g>
</svg>
