<?xml version="1.0" encoding="UTF-8"?>
<svg width="20px" height="20px" viewBox="0 0 20 20" version="1.1" xmlns="http://www.w3.org/2000/svg" xmlns:xlink="http://www.w3.org/1999/xlink">
    <!-- Generator: Sketch 55 (78076) - https://sketchapp.com -->
    <title>稿件浏览量</title>
    <desc>Created with Sketch.</desc>
    <g id="稿件浏览量" stroke="none" stroke-width="1" fill="none" fill-rule="evenodd">
        <path d="M10,2 C10.9072222,2 11.7894445,2.13777778 12.6466667,2.41333334 C13.5038889,2.6888889 14.2558333,3.04694445 14.9025,3.4875 C15.5491667,3.92805555 16.1577778,4.41527777 16.7283334,4.94916666 C17.2988889,5.48305555 17.7786111,6.01694444 18.1675,6.55083332 C18.5563889,7.0847222 18.8927778,7.57194442 19.1766667,8.01249998 C19.4605556,8.45305554 19.67,8.80999999 19.805,9.08333332 L20,9.5 C19.9694445,9.56499998 19.9283333,9.65277776 19.8766667,9.76333332 C19.825,9.87388888 19.7025,10.0997222 19.5091667,10.4408333 C19.3158333,10.7819444 19.1097222,11.1183333 18.8908333,11.45 C18.6719444,11.7816666 18.3833333,12.1722222 18.025,12.6216666 C17.6666667,13.0711111 17.2966667,13.49 16.915,13.8783333 C16.5333333,14.2666666 16.0808333,14.6583333 15.5575,15.0533333 C15.0341667,15.4483333 14.4980556,15.7836111 13.9491667,16.0591666 C13.4002778,16.3347222 12.7827778,16.5605555 12.0966667,16.7366666 C11.4105556,16.9127777 10.7116667,17.0005555 10,17 C9.09277777,17 8.21055555,16.8622222 7.35333334,16.5866666 C6.49611113,16.3111111 5.74416668,15.9541666 5.0975,15.5158333 C4.45083332,15.0775 3.84222221,14.5936111 3.27166666,14.0641666 C2.70111111,13.5347222 2.22138889,13.0041666 1.8325,12.4725 C1.44361111,11.9408333 1.10722222,11.4558333 0.82333334,11.0175 C0.53944446,10.5791666 0.330000013,10.2211111 0.195,9.94333332 L0,9.53333332 C0.0305555599,9.46833332 0.0716666732,9.38055554 0.12333334,9.26999998 C0.175000007,9.15944442 0.297500007,8.93277775 0.49083334,8.58999998 C0.684166673,8.24722221 0.890277786,7.90972221 1.10916668,7.57749998 C1.32805557,7.24527775 1.61666669,6.85249997 1.97500002,6.39916664 C2.33333335,5.94583331 2.70333335,5.52472219 3.08500002,5.1358333 C3.46666669,4.74694441 3.91916669,4.35416663 4.44250002,3.95749996 C4.96583335,3.56083329 5.50194447,3.22333329 6.05083336,2.94499996 C6.59972225,2.66666663 7.21722225,2.43999996 7.90333336,2.26499996 C8.58944447,2.08999996 9.28833335,2.00222218 10,2.00166662 L10,2 Z M10,3.66666666 C9.39222225,3.66666666 8.79555558,3.74694444 8.21000002,3.9075 C7.62444446,4.06805556 7.09611113,4.27527778 6.62500002,4.52916666 C6.15388891,4.78305554 5.69388891,5.08999999 5.24500002,5.45 C4.79611113,5.81000001 4.40777779,6.16472223 4.08000002,6.51416666 C3.75222225,6.86361109 3.43416669,7.23916664 3.12583336,7.64083332 C2.81750003,8.0425 2.57222225,8.38638889 2.39000002,8.67249998 C2.20777779,8.95861107 2.03638891,9.24499996 1.87583336,9.53166664 C2.03638892,9.81388887 2.20777781,10.0972222 2.39000002,10.3816666 C2.57222223,10.6661111 2.81750001,11.0069444 3.12583336,11.4041666 C3.43416671,11.8013889 3.75222226,12.1725 4.08000002,12.5175 C4.40777778,12.8625 4.79611111,13.2130555 5.24500002,13.5691666 C5.69388893,13.9252777 6.15388893,14.2291666 6.62500002,14.4808333 C7.09611111,14.7325 7.62444445,14.9375 8.21000002,15.0958333 C8.79555559,15.2541666 9.39222226,15.3333333 10,15.3333333 C10.6077778,15.3333333 11.2044444,15.2530555 11.79,15.0925 C12.3755556,14.9319444 12.9038889,14.7258333 13.375,14.4741666 C13.8461111,14.2225 14.3061111,13.9175 14.755,13.5591666 C15.2038889,13.2008333 15.5922223,12.8480555 15.92,12.5008333 C16.2477778,12.1536111 16.5658333,11.7802777 16.8741667,11.3808333 C17.1825,10.9813888 17.4277778,10.6386111 17.61,10.3524999 C17.7922222,10.0663888 17.9636111,9.78222215 18.1241667,9.49999994 C17.9636111,9.21777771 17.7922222,8.93361105 17.61,8.64749994 C17.4277778,8.36138883 17.1825,8.01861105 16.8741667,7.6191666 C16.5658333,7.21972215 16.2477778,6.84638882 15.92,6.4991666 C15.5922223,6.15194439 15.2038889,5.79916661 14.755,5.44083326 C14.3061111,5.08249992 13.8461111,4.77749992 13.375,4.52583326 C12.9038889,4.27416661 12.3755556,4.06805549 11.79,3.90749992 C11.2044444,3.74694435 10.6077778,3.66666657 10,3.66666658 L10,3.66666666 Z M10,6.16666666 C10.92,6.16666666 11.7055556,6.49222221 12.3566667,7.14333332 C13.0077778,7.79444443 13.3333333,8.57999998 13.3333333,9.49999998 C13.3333333,10.42 13.0077778,11.2055555 12.3566667,11.8566666 C11.7055556,12.5077777 10.92,12.8333333 10,12.8333333 C9.08000002,12.8333333 8.29444447,12.5077777 7.64333336,11.8566666 C6.99222225,11.2055555 6.6666667,10.42 6.6666667,9.49999998 C6.6666667,8.57999998 6.99222225,7.79444443 7.64333336,7.14333332 C8.29444447,6.49222221 9.08000002,6.16666666 10,6.16666666 Z M10,7.83333334 C9.54000002,7.83333334 9.14722224,7.99611112 8.82166668,8.32166668 C8.49611112,8.64722224 8.33333334,9.04000002 8.33333334,9.50000002 C8.33333334,9.96000002 8.49611112,10.3527778 8.82166668,10.6783334 C9.14722224,11.0038889 9.54000002,11.1666667 10,11.1666667 C10.46,11.1666667 10.8527778,11.0038889 11.1783334,10.6783334 C11.5038889,10.3527778 11.6666667,9.96000002 11.6666667,9.50000002 C11.6666667,9.04000002 11.5038889,8.64722224 11.1783334,8.32166668 C10.8527778,7.99611112 10.46,7.83333334 10,7.83333334 L10,7.83333334 Z" id="形状" fill="#2584D6" fill-rule="nonzero"></path>
    </g>
</svg>