<?xml version="1.0" encoding="UTF-8"?>
<svg width="16px" height="16px" viewBox="0 0 16 16" version="1.1" xmlns="http://www.w3.org/2000/svg" xmlns:xlink="http://www.w3.org/1999/xlink">
    <!-- Generator: Sketch 52.2 (67145) - http://www.bohemiancoding.com/sketch -->
    <title>ic_close</title>
    <desc>Created with Sketch.</desc>
    <g id="ic_close" stroke="none" stroke-width="1" fill="none" fill-rule="evenodd">
        <g id="Group-7-Copy-5">
            <rect id="Rectangle-36-Copy" x="0" y="0" width="16" height="16"></rect>
            <g id="close" transform="translate(2.000000, 2.000000)" fill="#000000" fill-opacity="0.25" fill-rule="nonzero">
                <path d="M7.05999269,6.00163797 L11.8070816,1.25495887 C12.0939936,0.96784631 12.0939936,0.503618857 11.8070816,0.218370663 C11.5201697,-0.068741898 11.0562666,-0.068741898 10.7712177,0.218370663 L6.02226563,4.96318539 L1.2733136,0.216506296 C0.986401629,-0.0706062653 0.522498508,-0.0706062653 0.237449603,0.216506296 C-0.0494623675,0.503618857 -0.0494623675,0.96784631 0.237449603,1.2530945 L4.98453856,5.9997736 L0.237449603,10.7483171 C-0.0494623675,11.0354296 -0.0494623675,11.4996571 0.237449603,11.7849053 C0.380905588,11.9284616 0.569075127,11.9993075 0.755381601,11.9993075 C0.94355114,11.9993075 1.12985761,11.9284616 1.2733136,11.7849053 L6.02226563,7.03822617 L10.7712177,11.7867696 C10.9146736,11.9303259 11.1009801,12.0011719 11.2891496,12.0011719 C11.4773192,12.0011719 11.6636257,11.9303259 11.8070816,11.7867696 C12.0939936,11.4996571 12.0939936,11.0354296 11.8070816,10.7501814 L7.05999269,6.00163797 Z" id="Shape"></path>
            </g>
        </g>
    </g>
</svg>