<?xml version="1.0" encoding="UTF-8"?>
<svg width="12px" height="11px" viewBox="0 0 12 11" version="1.1" xmlns="http://www.w3.org/2000/svg" xmlns:xlink="http://www.w3.org/1999/xlink">
    <!-- Generator: Sketch 52.2 (67145) - http://www.bohemiancoding.com/sketch -->
    <title>Group 10</title>
    <desc>Created with Sketch.</desc>
    <g id="Page-1" stroke="none" stroke-width="1" fill="none" fill-rule="evenodd">
        <g id="我的作品" transform="translate(-187.000000, -206.000000)">
            <g id="Group-10" transform="translate(186.000000, 205.000000)">
                <rect id="Rectangle" fill="#D8D8D8" opacity="0" x="0" y="0" width="14" height="14"></rect>
                <path d="M9,3 L5,3 L5,4 L4,4 L4,3 L2,3 L2,11 L12,11 L12,3 L10,3 L10,4 L9,4 L9,3 Z M10,2 L12,2 C12.5522847,2 13,2.44771525 13,3 L13,11 C13,11.5522847 12.5522847,12 12,12 L2,12 C1.44771525,12 1,11.5522847 1,11 L1,3 C1,2.44771525 1.44771525,2 2,2 L4,2 L4,1 L5,1 L5,2 L9,2 L9,1 L10,1 L10,2 Z M4,6 L6,6 L6,7 L4,7 L4,6 Z M4,8 L6,8 L6,9 L4,9 L4,8 Z M8,6 L10,6 L10,7 L8,7 L8,6 Z M8,8 L10,8 L10,9 L8,9 L8,8 Z" id="Combined-Shape" fill="#999999" fill-rule="nonzero"></path>
            </g>
        </g>
    </g>
</svg>