<?xml version="1.0" encoding="UTF-8"?>
<svg width="16px" height="16px" viewBox="0 0 16 16" version="1.1" xmlns="http://www.w3.org/2000/svg" xmlns:xlink="http://www.w3.org/1999/xlink">
    <g id="设计稿-9.26" stroke="none" stroke-width="1">
        <g id="生产力排行" transform="translate(-503.000000, -152.000000)">
            <g id="Icon/筛选一" transform="translate(503.000000, 152.000000)">
                <g id="筛选-copy" transform="translate(2.666667, 3.333333)">
                    <path d="M4.44511398,10.6666667 C4.3562966,10.6666667 4.26746505,10.6222246 4.22305637,10.6222246 C4.08983031,10.5333404 4.00099876,10.3555579 4.00099876,10.2222317 L4.00099876,6.35555793 L0.0928217029,0.71111584 C0.00400432435,0.577789598 -0.040404358,0.400007086 0.0484130205,0.222224588 C0.137244569,0.0888983465 0.27047063,0 0.448119544,0 L10.2185551,0 C10.396204,0 10.5294301,0.0888841656 10.6182474,0.222224588 C10.707079,0.35555083 10.6626561,0.533333342 10.5738388,0.666673764 L6.66567589,6.35555793 L6.66567589,9.33333335 C6.66567589,9.51111586 6.57684434,9.6444421 6.3992096,9.73334043 L4.62276291,10.6222246 C4.57835422,10.6666667 4.53394553,10.6666667 4.44511398,10.6666667 Z" id="Path"></path>
                </g>
            </g>
        </g>
    </g>
</svg>
