<?xml version="1.0" encoding="UTF-8"?>
<svg width="20px" height="17px" viewBox="0 0 20 17" version="1.1" xmlns="http://www.w3.org/2000/svg" xmlns:xlink="http://www.w3.org/1999/xlink">
    <!-- Generator: Sketch 58 (84663) - https://sketch.com -->
    <title>形状</title>
    <desc>Created with Sketch.</desc>
    <g id="页面1" stroke="none" stroke-width="1" fill="none" fill-rule="evenodd">
        <g id="画板" transform="translate(-563.000000, -1685.000000)" fill="#2584D6" fill-rule="nonzero">
            <path d="M583,1701.02453 C583,1701.56327 582.558476,1701.99998 582.013843,1701.99998 C581.469211,1701.99998 581.027687,1701.56327 581.027687,1701.02453 C581.027687,1701.01841 581.029391,1701.01278 581.029485,1701.00666 L581.023344,1701.00666 C581.023578,1700.98416 581.02673,1700.96238 581.02673,1700.9398 C581.02673,1699.34739 580.389893,1697.90528 579.359794,1696.84681 L579.365748,1696.84088 C579.190236,1696.67098 579.080637,1696.43468 579.080637,1696.17254 C579.080637,1695.65548 579.50437,1695.23642 580.027031,1695.23642 C580.292109,1695.23642 580.531013,1695.34475 580.702836,1695.51842 L580.704587,1695.51664 C582.122789,1696.92305 583,1698.86343 583,1701.0067 L582.998179,1701.0067 C582.998272,1701.0128 583,1701.01841 583,1701.02453 Z M575.154013,1695.06065 L575.154013,1695.06308 C575.149156,1695.06303 575.14444,1695.06234 575.139537,1695.06234 C571.888181,1695.06234 569.252437,1697.69377 569.252437,1700.9398 C569.252437,1700.95571 569.253815,1700.97125 569.254842,1700.98696 C569.255309,1700.9997 569.258671,1701.01164 569.258671,1701.02455 C569.258671,1701.56329 568.817147,1702 568.272515,1702 C567.727836,1702 567.286311,1701.56329 567.286311,1701.02455 C567.286311,1701.01843 567.288016,1701.0128 567.288109,1701.00668 L567.279097,1701.00668 C567.279097,1697.85037 569.184002,1695.13919 571.915849,1693.92112 C570.779046,1692.99854 570.053392,1691.59862 570.053392,1690.03065 C570.053392,1687.25225 572.330569,1685 575.13956,1685 C577.948551,1685 580.225705,1687.25223 580.225705,1690.03063 C580.225705,1692.80415 577.956256,1695.05282 575.154013,1695.06065 Z M575.139537,1686.82293 C573.351982,1686.82293 571.902937,1688.25622 571.902937,1690.02432 C571.902937,1691.79233 573.351982,1693.22562 575.139537,1693.22562 C576.927091,1693.22562 578.376183,1691.79233 578.376183,1690.02432 C578.376183,1688.25622 576.927091,1686.82293 575.139537,1686.82293 Z M569.128665,1687.70824 C568.047853,1688.00313 567.254277,1688.96673 567.254277,1690.113 C567.254277,1691.07318 567.811121,1691.90526 568.627182,1692.3234 C568.957496,1692.49266 569.278401,1692.81344 569.331005,1693.37217 C569.376606,1693.85664 569.231306,1694.5839 568.583379,1694.76061 C566.416712,1695.3514 564.817534,1697.25154 564.739153,1699.53085 C564.743963,1699.56757 564.750477,1699.60381 564.750477,1699.6418 C564.750477,1700.11936 564.359129,1700.50648 563.876254,1700.50648 C563.393473,1700.50648 563.002078,1700.11936 563.002078,1699.6418 C563.002078,1699.63339 563.00439,1699.62556 563.004623,1699.61715 L563,1699.61711 C563,1696.71499 564.741838,1694.40554 567.189811,1693.40529 C566.176687,1692.63949 565.522059,1691.44569 565.522059,1690.10039 C565.522059,1688.40885 566.553955,1686.95489 568.037907,1686.29599 C568.731901,1685.9878 569.237447,1686.35581 569.359794,1686.8293 C569.506424,1687.39666 569.128665,1687.70824 569.128665,1687.70824 Z" id="形状"></path>
        </g>
    </g>
</svg>