<?xml version="1.0" encoding="UTF-8"?>
<svg width="12px" height="11px" viewBox="0 0 12 11" version="1.1" xmlns="http://www.w3.org/2000/svg" xmlns:xlink="http://www.w3.org/1999/xlink">
    <!-- Generator: Sketch 55.2 (78181) - https://sketchapp.com -->
    <title>Group 197</title>
    <desc>Created with Sketch.</desc>
    <g id="设计稿-9.26" stroke="none" stroke-width="1" fill="none" fill-rule="evenodd" opacity="0.45">
        <g id="首页" transform="translate(-323.000000, -814.000000)" fill="#000000" fill-rule="nonzero">
            <g id="编组-2" transform="translate(24.000000, 623.000000)">
                <g id="Group-197" transform="translate(299.000000, 191.000000)">
                    <path d="M12,9.61471799 C12,9.93796094 11.7350854,10.1999861 11.4083061,10.1999861 C11.0815267,10.1999861 10.8166121,9.93796094 10.8166121,9.61471799 C10.8166121,9.61104603 10.8176348,9.60766506 10.8176909,9.60399311 L10.8140064,9.60399311 C10.8141465,9.59049694 10.8160378,9.57743032 10.8160378,9.56387873 C10.8160378,8.60843587 10.4339359,7.74317069 9.81587665,7.10808864 L9.819449,7.10452753 C9.7141416,7.00258572 9.64838227,6.86080667 9.64838227,6.70352226 C9.64838227,6.39329052 9.90262182,6.14185161 10.2162185,6.14185161 C10.3752653,6.14185161 10.5186077,6.20685215 10.6217017,6.31105256 L10.6227524,6.3099856 C11.4736731,7.15382873 12,8.31806037 12,9.60402081 L11.9989073,9.60402081 C11.9989633,9.60767893 12,9.61104603 12,9.61471799 Z M7.2924077,6.03639028 L7.2924077,6.0378452 C7.28949378,6.03781748 7.28666391,6.03740179 7.28372198,6.03740179 C5.33290839,6.03740179 3.75146222,7.61625958 3.75146222,9.56387873 C3.75146222,9.57342581 3.75228877,9.58275119 3.75290518,9.59217357 C3.75318536,9.59982232 3.75520269,9.60698609 3.75520269,9.61473184 C3.75520269,9.93797479 3.49028811,10.2 3.16350876,10.2 C2.83670139,10.2 2.57178682,9.93797479 2.57178682,9.61473184 C2.57178682,9.61105989 2.57280949,9.60767891 2.57286553,9.60400696 L2.56745797,9.60400696 C2.56745797,7.71022007 3.71040117,6.083516 5.34950934,5.35267212 C4.66742785,4.79912134 4.23203492,3.95917188 4.23203492,3.01838912 C4.23203492,1.35134896 5.59834131,0 7.283736,0 C8.96913068,0 10.3354231,1.35133513 10.3354231,3.01837528 C10.3354231,4.68249172 8.97375371,6.03169294 7.2924077,6.03639028 Z M7.28372198,1.09375783 C6.21118918,1.09375783 5.34176223,1.95372985 5.34176223,3.01459247 C5.34176223,4.07539968 6.21118918,4.93537168 7.28372198,4.93537168 C8.35625477,4.93537168 9.22570975,4.07539966 9.22570975,3.01459247 C9.22570975,1.95372983 8.35625477,1.09375783 7.28372198,1.09375783 Z M3.67719928,1.62494432 C3.02871193,1.80187716 2.55256615,2.38003697 2.55256615,3.06780119 C2.55256615,3.64391025 2.88667233,4.14315765 3.37630899,4.39404229 C3.5744976,4.49559611 3.76704048,4.68806201 3.79860328,5.02330463 C3.82596331,5.31398495 3.73878387,5.75033799 3.35002768,5.85636744 C2.05002698,6.2108428 1.09052066,7.35092269 1.04349167,8.71851138 C1.04637757,8.74054312 1.05028615,8.76228386 1.05028615,8.7850777 C1.05028615,9.07161495 0.815477416,9.3038904 0.52575248,9.3038904 C0.236083592,9.3038904 0.0012468319,9.07161495 0.0012468319,8.7850777 C0.0012468319,8.78003397 0.00263374158,8.77533663 0.00277383305,8.77029288 L0,8.77026516 C0,7.02899608 1.04510273,5.64332472 2.51388665,5.04317474 C1.90601207,4.5836953 1.51323523,3.86741454 1.51323523,3.06023555 C1.51323523,2.045307 2.13237323,1.17293348 3.02274399,0.777595484 C3.43914039,0.592681342 3.74246829,0.813483653 3.81587666,1.09758217 C3.90385465,1.43799328 3.67719928,1.62494432 3.67719928,1.62494432 Z" id="形状"></path>
                </g>
            </g>
        </g>
    </g>
</svg>