<?xml version="1.0" encoding="UTF-8"?>
<svg width="12px" height="12px" viewBox="0 0 12 12" version="1.1" xmlns="http://www.w3.org/2000/svg" xmlns:xlink="http://www.w3.org/1999/xlink">
    <!-- Generator: Sketch 58 (84663) - https://sketch.com -->
    <title>logout</title>
    <desc>Created with Sketch.</desc>
    <g id="页面-1" stroke="none" stroke-width="1" fill="none" fill-rule="evenodd">
        <g id="logout" transform="translate(-2.000000, -1.000000)" fill="#979696" fill-rule="nonzero">
            <rect id="Rectangle" fill-opacity="0.65" opacity="0" x="0" y="0" width="14" height="14"></rect>
            <path d="M13.1122624,7.3484096 C13.1096341,7.35144107 13.1070805,7.35453227 13.1043627,7.357504 C13.0985731,7.36390061 13.0926279,7.37015457 13.0865323,7.37626027 L10.6578496,9.80494293 C10.4537408,10.0090517 10.1228032,10.0090517 9.9186944,9.80494293 C9.7145856,9.60083413 9.7145856,9.26989653 9.9186944,9.06578773 L11.4551253,7.5293568 L6.89296213,7.5293568 C6.6043008,7.5293568 6.37029547,7.29535147 6.37029547,7.00669013 C6.37029547,6.7180288 6.6043008,6.48402347 6.89296213,6.48402347 L11.4551253,6.48402347 L9.91870933,4.94759253 C9.71460053,4.74348373 9.71460053,4.41254613 9.91870933,4.20843733 C10.1228181,4.00432853 10.4537557,4.00432853 10.6578645,4.20843733 L13.0865173,6.63713493 L13.086816,6.63744853 C13.0928083,6.64345327 13.098654,6.64960264 13.1043477,6.6558912 C13.1070955,6.65892267 13.1096789,6.66204373 13.1123371,6.66512 C13.1152341,6.66846507 13.1181909,6.67178027 13.1209984,6.6752 C13.1242987,6.67920213 13.1274048,6.68327893 13.1305557,6.68735573 C13.1325867,6.68996907 13.1346624,6.6925376 13.1366336,6.69519573 C13.1399446,6.69969127 13.1431806,6.70424159 13.1463403,6.7088448 C13.1479829,6.71120427 13.1496853,6.71353387 13.1512832,6.7159232 C13.1544491,6.72064213 13.1574507,6.72543573 13.1604523,6.73022933 C13.1619456,6.7326336 13.1634987,6.73502293 13.1649621,6.73745707 C13.1677995,6.74216107 13.1704875,6.74693973 13.1731605,6.7517184 C13.1746688,6.7544064 13.1762069,6.7570944 13.1776704,6.75981227 C13.1800896,6.76432213 13.1823744,6.7688768 13.1846443,6.77343147 C13.1862272,6.7765824 13.1878251,6.77973333 13.1893483,6.78292907 C13.1913195,6.78708053 13.1931712,6.79129173 13.1950229,6.795488 C13.1966915,6.79920125 13.1983144,6.80293487 13.1998912,6.806688 C13.2014293,6.81042133 13.2028779,6.81418453 13.2043264,6.81794773 C13.2059989,6.82226347 13.2076715,6.8265792 13.2092245,6.83093973 C13.2104043,6.83425493 13.2114795,6.8376 13.2125995,6.84093013 C13.214237,6.84577074 13.2158051,6.85063452 13.2173035,6.85552 C13.2181995,6.85846187 13.2189909,6.8614336 13.2198272,6.8643904 C13.2213467,6.86968314 13.2227804,6.8750001 13.224128,6.8803392 C13.2248149,6.88305707 13.2253973,6.8858048 13.2260245,6.8885376 C13.2273357,6.89408227 13.2285555,6.89964818 13.2296832,6.90523307 C13.2302357,6.90804053 13.2306837,6.91086293 13.2311915,6.91368533 C13.232207,6.91919107 13.233138,6.92471208 13.233984,6.9302464 C13.2344768,6.9335168 13.2348203,6.93680213 13.2352384,6.94007253 C13.2358805,6.94517973 13.2365675,6.950272 13.2370752,6.955424 C13.2375083,6.9597696 13.2377621,6.96414507 13.2380757,6.9685056 C13.2383744,6.9726272 13.2387477,6.97673387 13.2389568,6.98088533 C13.239808,6.99809295 13.239808,7.01533212 13.2389568,7.03253973 C13.2387627,7.0366912 13.2383744,7.04079787 13.2380757,7.04491947 C13.2377472,7.04928 13.2375083,7.05365547 13.2370752,7.05800107 C13.2365824,7.063168 13.2358955,7.06826027 13.2352384,7.07336747 C13.2348053,7.0766528 13.2344619,7.0799232 13.233984,7.0831936 C13.2331776,7.08876373 13.2321771,7.0942592 13.2311915,7.0997696 C13.2306837,7.102592 13.2302357,7.10539947 13.2296832,7.10820693 C13.2285781,7.11380693 13.2273088,7.11936213 13.2260245,7.1249024 C13.2253824,7.1276352 13.2248,7.13038293 13.224128,7.1331008 C13.2227989,7.13846187 13.2213205,7.1437632 13.2198272,7.1490496 C13.2189909,7.1520064 13.2181845,7.15497813 13.2173035,7.15792 C13.2158101,7.16283307 13.2142123,7.16767147 13.2125845,7.1725248 C13.2114795,7.17585493 13.2103893,7.17918507 13.2092096,7.18250027 C13.2076565,7.1868608 13.205984,7.19117653 13.2043115,7.19549227 C13.2028629,7.19924053 13.2014144,7.20300373 13.1998763,7.20673707 C13.1983083,7.21050027 13.1966507,7.21421867 13.195008,7.21793707 C13.1931563,7.22213333 13.1913045,7.2263296 13.1893333,7.230496 C13.1878101,7.23369173 13.1862123,7.23684267 13.1846293,7.24000853 C13.1823595,7.2445632 13.1800747,7.24910293 13.1776704,7.25359787 C13.1762069,7.25633067 13.1746539,7.25901867 13.1731456,7.2617216 C13.1704725,7.26650027 13.1677845,7.271264 13.1649472,7.275968 C13.1634837,7.27840213 13.1619307,7.28079147 13.1604224,7.28321067 C13.1574357,7.28798933 13.1544341,7.292768 13.1512683,7.29748693 C13.1496555,7.2998912 13.1479531,7.30223573 13.1462955,7.30462507 C13.1431296,7.30917973 13.1399637,7.3137344 13.1366336,7.3182144 C13.1346475,7.32088747 13.1325568,7.32348587 13.1305109,7.32612907 C13.1273749,7.330176 13.1242837,7.33423787 13.1210133,7.33821013 C13.118176,7.34167467 13.1151893,7.34501973 13.1122624,7.3484096 Z M6.94696107,11.8219136 C7.26861013,11.8219136 7.52936107,12.0826645 7.52936107,12.4043136 C7.52936107,12.7259627 7.26861013,12.9867136 6.94696107,12.9867136 L3.03442773,12.9867136 C2.71277867,12.9867136 2.45202773,12.7259627 2.45202773,12.4043136 L2.45202773,1.62244693 C2.45202773,1.30079787 2.71277867,1.04004693 3.03442773,1.04004693 L6.94696107,1.04004693 C7.26861013,1.04004693 7.52936107,1.30079787 7.52936107,1.62244693 C7.52936107,1.944096 7.26861013,2.20484693 6.94696107,2.20484693 L3.61682773,2.20484693 L3.61682773,11.8219136 L6.94696107,11.8219136 Z" id="Combined-Shape"></path>
        </g>
    </g>
</svg>