<?xml version="1.0" encoding="UTF-8"?>
<svg width="19px" height="17px" viewBox="0 0 19 17" version="1.1" xmlns="http://www.w3.org/2000/svg" xmlns:xlink="http://www.w3.org/1999/xlink">
    <!-- Generator: Sketch 58 (84663) - https://sketch.com -->
    <title>形状</title>
    <desc>Created with Sketch.</desc>
    <g id="页面1" stroke="none" stroke-width="1" fill="none" fill-rule="evenodd">
        <g id="画板" transform="translate(-646.000000, -1685.000000)" fill="#2584D6" fill-rule="nonzero">
            <path d="M663.325749,1686.83438 C662.677702,1686.02637 661.949675,1685.65723 661.867644,1685.61826 C661.867644,1685.61826 661.865593,1685.61826 661.863542,1685.61621 C659.515398,1684.48008 657.626628,1685.12608 656.453581,1685.86641 C655.918327,1686.20479 655.487663,1686.59239 655.167741,1686.92666 C654.84782,1686.59239 654.415105,1686.20479 653.881902,1685.86641 C652.710906,1685.12608 650.822136,1684.48008 648.471941,1685.61621 C648.46989,1685.61621 648.46989,1685.61621 648.467839,1685.61826 C648.387859,1685.65723 647.659831,1686.02637 647.009734,1686.83438 C646.398601,1687.59727 645.744402,1688.90156 646.101238,1690.79444 C646.314519,1691.92031 646.84362,1692.97237 647.63112,1693.8378 C647.637273,1693.846 647.645476,1693.85215 647.651628,1693.86035 L654.573015,1700.90479 C654.732976,1701.06885 654.946257,1701.15088 655.157488,1701.15088 C655.364616,1701.15088 655.571745,1701.07295 655.731706,1700.91504 C656.05573,1700.59717 656.059831,1700.07832 655.74196,1699.7543 L648.832878,1692.72012 C648.254558,1692.08233 647.86696,1691.31123 647.711101,1690.48887 C647.264031,1688.12227 649.076921,1687.14815 649.187663,1687.09073 C650.510417,1686.45293 651.779851,1686.5001 652.956999,1687.22608 C653.898308,1687.80645 654.443816,1688.61856 654.449968,1688.62676 L654.447917,1688.62471 L654.488933,1688.59805 C654.550456,1688.70059 654.636589,1688.79287 654.74323,1688.8626 C655.122624,1689.11074 655.631218,1689.0041 655.879363,1688.62471 C655.883464,1688.61651 656.412566,1687.83311 657.327214,1687.25479 C658.518718,1686.50215 659.800456,1686.44678 661.141667,1687.09278 C661.252409,1687.1502 663.0653,1688.12432 662.61823,1690.49092 C662.573113,1690.72676 662.509538,1690.9626 662.425456,1691.18819 C662.269597,1691.61475 662.489031,1692.08438 662.915593,1692.24024 C663.007878,1692.27305 663.102214,1692.28946 663.19655,1692.28946 C663.530827,1692.28946 663.846648,1692.08233 663.967644,1691.7501 C664.080437,1691.44043 664.16862,1691.11846 664.230144,1690.79444 C664.591081,1688.90156 663.936882,1687.59727 663.325749,1686.83438 L663.325749,1686.83438 Z M649.227859,1687.15368 C649.240984,1687.15368 649.240984,1687.14056 649.254109,1687.14056 L649.227859,1687.15368 Z M661.190986,1687.14056 C661.204111,1687.14056 661.204111,1687.15368 661.217236,1687.15368 C661.230361,1687.15368 661.190986,1687.14056 661.190986,1687.14056 Z M662.648991,1696.63711 L661.17448,1696.63711 L661.17448,1695.1626 C661.17448,1694.70938 660.80739,1694.34229 660.354167,1694.34229 C659.900945,1694.34229 659.533855,1694.70938 659.533855,1695.1626 L659.533855,1696.63711 L658.059343,1696.63711 C657.60612,1696.63711 657.239031,1697.0042 657.239031,1697.45742 C657.239031,1697.91065 657.60612,1698.27774 658.059343,1698.27774 L659.533855,1698.27774 L659.533855,1699.75225 C659.533855,1700.20547 659.900945,1700.57256 660.354167,1700.57256 C660.80739,1700.57256 661.17448,1700.20547 661.17448,1699.75225 L661.17448,1698.27774 L662.648991,1698.27774 C663.102214,1698.27774 663.469304,1697.91065 663.469304,1697.45742 C663.469304,1697.0042 663.100163,1696.63711 662.648991,1696.63711 Z" id="形状"></path>
        </g>
    </g>
</svg>