<?xml version="1.0" encoding="UTF-8"?>
<svg width="18px" height="18px" viewBox="0 0 18 18" version="1.1" xmlns="http://www.w3.org/2000/svg" xmlns:xlink="http://www.w3.org/1999/xlink">
    <!-- Generator: Sketch 55 (78076) - https://sketchapp.com -->
    <title>部门管理</title>
    <desc>Created with Sketch.</desc>
    <g id="部门管理" stroke="none" stroke-width="1" fill="none" fill-rule="evenodd" stroke-opacity="0.45">
        <g id="编组-2" transform="translate(1.000000, 4.000000)" stroke="#000000">
            <circle id="椭圆形" cx="10.290472" cy="2.5" r="2.5"></circle>
            <circle id="椭圆形备份" cx="3.79047195" cy="4" r="2"></circle>
            <path d="M10.290472,7 C13.3135722,7 15.0904267,7.90636048 15.6210356,9.71908144 L15.6210282,9.7190836 C15.7761783,10.2491234 15.4722701,10.8045796 14.9422303,10.9597297 C14.8509796,10.98644 14.7563859,11 14.6613062,11 L5.91964001,11.0000001 C5.36735522,11.0000001 4.91963994,10.5522848 4.91963994,10 C4.91963994,9.90491861 4.93320029,9.81032316 4.95991142,9.71907085 C5.49052413,7.90635695 7.26737764,7 10.290472,7 Z" id="矩形"></path>
            <path d="M3.29047195,11 L1.00002599,11.000026 C0.447726887,11.000026 -2.84217094e-14,10.5522991 -5.68434189e-14,10 C-5.68434189e-14,9.83551941 0.0405706273,9.6735781 0.118117104,9.52852498 C0.662890953,8.50950833 1.88700924,8 3.79047195,8" id="路径" stroke-linecap="round"></path>
        </g>
    </g>
</svg>