<?xml version="1.0" encoding="UTF-8"?>
<svg width="10px" height="10px" viewBox="0 0 10 10" version="1.1" xmlns="http://www.w3.org/2000/svg" xmlns:xlink="http://www.w3.org/1999/xlink">
    <!-- Generator: Sketch 52.2 (67145) - http://www.bohemiancoding.com/sketch -->
    <title>Group 7 Copy</title>
    <desc>Created with Sketch.</desc>
    <g id="素材中心" stroke="none" stroke-width="1" fill="none" fill-rule="evenodd">
        <g id="素材中心页面" transform="translate(-492.000000, -189.000000)">
            <g id="Group-7-Copy" transform="translate(490.000000, 187.000000)">
                <rect id="Rectangle-36-Copy" x="0" y="0" width="14" height="14"></rect>
                <g id="close" transform="translate(2.000000, 2.000000)" fill="#999999" fill-rule="nonzero">
                    <path d="M5.88703818,5.00156028 L9.84294564,1.04599437 C10.082039,0.806733904 10.082039,0.419877693 9.84294564,0.182170865 C9.60385234,-0.0570896025 9.2172664,-0.0570896025 8.97972565,0.182170865 L5.02226563,4.13618314 L1.0648056,0.180617226 C0.825712295,-0.0586432419 0.439126361,-0.0586432419 0.201585606,0.180617226 C-0.0375077021,0.419877693 -0.0375077021,0.806733904 0.201585606,1.04444073 L4.15749307,5.00000665 L0.201585606,8.9571262 C-0.0375077021,9.19638667 -0.0375077021,9.58324288 0.201585606,9.8209497 C0.321132261,9.94057994 0.47794021,9.99961824 0.633195605,9.99961824 C0.790003554,9.99961824 0.945258949,9.94057994 1.0648056,9.8209497 L5.02226563,5.86538379 L8.97972565,9.82250334 C9.0992723,9.94213358 9.2545277,10.0011719 9.41133565,10.0011719 C9.56814359,10.0011719 9.72339899,9.94213358 9.84294564,9.82250334 C10.082039,9.58324288 10.082039,9.19638667 9.84294564,8.95867984 L5.88703818,5.00156028 Z" id="Shape"></path>
                </g>
            </g>
        </g>
    </g>
</svg>