<?xml version="1.0" encoding="UTF-8"?>
<svg width="18px" height="18px" viewBox="0 0 18 18" version="1.1" xmlns="http://www.w3.org/2000/svg" xmlns:xlink="http://www.w3.org/1999/xlink">
    <!-- Generator: Sketch 55 (78076) - https://sketchapp.com -->
    <title>个人设置</title>
    <desc>Created with Sketch.</desc>
    <g id="个人设置" stroke="none" stroke-width="1" fill="none" fill-rule="evenodd" stroke-opacity="0.45">
        <g id="编组" transform="translate(1.000000, 1.000000)" stroke="#000000">
            <circle id="椭圆形" cx="7.75" cy="7.74589457" r="2.58333333"></circle>
            <path d="M6.66689513,14.9183431 C7.42924197,15.0342227 8.20192283,15.0262947 8.95824428,14.8976361 L9.27082883,13.7816546 L9.53471127,13.702716 C9.97299634,13.5716062 10.3943584,13.392391 10.7920214,13.168801 L11.032117,13.0338048 L12.0522622,13.5843035 C12.6701964,13.1296251 13.2126486,12.5793123 13.6588624,11.9504291 L13.0911309,10.9409134 L13.2222997,10.698348 C13.4397382,10.2962472 13.6122307,9.87101772 13.7361463,9.42943589 L13.8105319,9.16435735 L14.9183467,8.83310379 C15.0342227,8.07075803 15.0262947,7.29807717 14.8976361,6.54175572 L13.7871909,6.23072188 L13.7084057,5.96648807 C13.5769834,5.52571672 13.3969232,5.10202101 13.1720138,4.70228611 L13.0369003,4.46214675 L13.5843035,3.44773785 C13.1296251,2.82980361 12.5793123,2.28735145 11.9504291,1.84113764 L10.9465687,2.40568867 L10.7039603,2.27441002 C10.2997791,2.05570214 9.87221672,1.88241657 9.42815744,1.75824013 L9.16272689,1.68401531 L8.83310379,0.58165331 C8.07075803,0.465777296 7.29807717,0.473705313 6.54175572,0.602363855 L6.23164662,1.70950765 L5.9676104,1.78837911 C5.52595476,1.92030808 5.10146997,2.10107746 4.70108783,2.3268683 L4.46080258,2.46237437 L3.44773785,1.91569652 C2.82980361,2.37037491 2.28735145,2.92068774 1.84113764,3.5495709 L2.40649301,4.55486156 L2.27560659,4.79731632 C2.05779125,5.20079868 1.88521492,5.62751905 1.76153409,6.07064171 L1.68739626,6.33626215 L0.581653303,6.66689621 C0.465777296,7.42924197 0.473705313,8.20192283 0.602363855,8.95824428 L1.7150474,9.26990506 L1.79407202,9.53358983 C1.92568813,9.97275885 2.10561095,10.3949102 2.33008007,10.7932215 L2.46546873,11.0334632 L1.91569652,12.0522622 C2.37037491,12.6701964 2.92068774,13.2126486 3.5495709,13.6588624 L4.56051873,13.0903255 L4.80293037,13.2211021 C5.20433117,13.4376505 5.62871859,13.6094352 6.06936418,13.7328554 L6.33463269,13.8071543 L6.66689621,14.9183467 Z" id="形状结合"></path>
        </g>
    </g>
</svg>