<?xml version="1.0" encoding="UTF-8"?>
<svg width="9px" height="9px" viewBox="0 0 9 9" version="1.1" xmlns="http://www.w3.org/2000/svg" xmlns:xlink="http://www.w3.org/1999/xlink">
    <!-- Generator: Sketch 55.2 (78181) - https://sketchapp.com -->
    <title>Group 189</title>
    <desc>Created with Sketch.</desc>
    <g id="设计稿-9.26" stroke="none" stroke-width="1" fill="none" fill-rule="evenodd" opacity="0.45">
        <g id="首页" transform="translate(-505.000000, -815.000000)" fill="#000000" fill-rule="nonzero">
            <g id="编组-2" transform="translate(24.000000, 623.000000)">
                <g id="Group-189" transform="translate(480.000000, 191.000000)">
                    <g id="export" transform="translate(0.113281, 0.289062)">
                        <path d="M8.98581483,8.51147327 C8.98581483,8.67722838 8.85123164,8.81184162 8.68551353,8.81184162 L2.08691962,8.81184162 C1.92120151,8.81184162 1.78661831,8.67722838 1.78661831,8.51147327 L1.78661831,1.9114063 C1.78661831,1.7456512 1.92120151,1.61103796 2.08691962,1.61103796 L3.88671875,1.61103796 L3.88671875,0.7109375 L1.48631701,0.7109375 C1.15488079,0.7109375 0.88671875,0.9791594 0.88671875,1.31066961 L0.88671875,9.11120539 C0.88671875,9.4427156 1.15488079,9.7109375 1.48631701,9.7109375 L9.28511179,9.7109375 C9.61654801,9.7109375 9.88471005,9.4427156 9.88471005,9.11120539 L9.88471005,6.71127236 L8.98481048,6.71127236 L8.98481048,8.51147327 L8.98581483,8.51147327 Z M9.43576462,0.7109375 L6.73606592,0.7109375 C6.48799093,0.7109375 6.28611614,0.912857357 6.28611614,1.16098773 C6.28611614,1.4091181 6.48799093,1.61103796 6.73606592,1.61103796 L8.49970837,1.61103796 L4.64098725,5.4706205 C4.46522561,5.64642137 4.46522561,5.93172107 4.64098725,6.10752194 C4.81674888,6.28332281 5.1019849,6.28332281 5.27774654,6.10752194 L8.98681919,2.39762128 L8.98681919,3.8612891 C8.98681919,4.10941947 9.18869398,4.31133933 9.43676897,4.31133933 C9.68484396,4.31133933 9.88671875,4.10941947 9.88671875,3.8612891 L9.88671875,1.16098773 C9.8857144,0.912857357 9.68383961,0.7109375 9.43576462,0.7109375 Z" id="形状"></path>
                    </g>
                </g>
            </g>
        </g>
    </g>
</svg>