<?xml version="1.0" encoding="UTF-8"?>
<svg width="15px" height="15px" viewBox="0 0 15 15" version="1.1" xmlns="http://www.w3.org/2000/svg" xmlns:xlink="http://www.w3.org/1999/xlink">
    <!-- Generator: Sketch 58 (84663) - https://sketch.com -->
    <title>形状</title>
    <desc>Created with Sketch.</desc>
    <g id="页面1" stroke="none" stroke-width="1" fill="none" fill-rule="evenodd">
        <g id="画板" transform="translate(-485.000000, -1686.000000)" fill="#2584D6" fill-rule="nonzero">
            <path d="M498.498493,1699.00089 C498.498493,1699.27715 498.274188,1699.50151 497.997991,1699.50151 L487.000335,1699.50151 C486.724138,1699.50151 486.499833,1699.27715 486.499833,1699.00089 L486.499833,1688.00078 C486.499833,1687.72452 486.724138,1687.50017 487.000335,1687.50017 L490,1687.50017 L490,1686 L485.99933,1686 C485.446937,1686 485,1686.44704 485,1686.99955 L485,1700.00045 C485,1700.55296 485.446937,1701 485.99933,1701 L498.997322,1701 C499.549715,1701 499.996652,1700.55296 499.996652,1700.00045 L499.996652,1696.00056 L498.49682,1696.00056 L498.49682,1699.00089 L498.498493,1699.00089 Z M499.24841,1686 L494.748912,1686 C494.335454,1686 493.998996,1686.33653 493.998996,1686.75008 C493.998996,1687.16363 494.335454,1687.50017 494.748912,1687.50017 L497.688316,1687.50017 L491.257114,1693.93281 C490.964178,1694.22581 490.964178,1694.70131 491.257114,1694.99431 C491.55005,1695.28731 492.025444,1695.28731 492.31838,1694.99431 L498.500167,1688.81114 L498.500167,1691.25059 C498.500167,1691.66414 498.836625,1692.00067 499.250084,1692.00067 C499.663542,1692.00067 500,1691.66414 500,1691.25059 L500,1686.75008 C499.998326,1686.33653 499.661868,1686 499.24841,1686 Z" id="形状"></path>
        </g>
    </g>
</svg>