<?xml version="1.0" encoding="UTF-8"?>
<svg width="20px" height="22px" viewBox="0 0 20 22" version="1.1" xmlns="http://www.w3.org/2000/svg" xmlns:xlink="http://www.w3.org/1999/xlink">
    <!-- Generator: Sketch 55 (78076) - https://sketchapp.com -->
    <title>点赞数量</title>
    <desc>Created with Sketch.</desc>
    <g id="点赞数量" stroke="none" stroke-width="1" fill="none" fill-rule="evenodd">
        <path d="M14.629,19.136 L5.515,19.136 L5.515,18.296 C5.515,16.742 5.536,9.518 5.536,9.518 C5.536,8.741 5.767,7.985 6.187,7.313 L8.728,3.386 C9.169,2.714 9.736,2 11.059,2 C12.067,2 12.634,2.483 12.928,2.882 C13.81,4.121 13.411,6.263 12.886,7.901 L17.023,7.901 C17.653,7.901 18.241,8.174 18.64,8.657 C18.997,9.098 19.144,9.665 19.039,10.211 L17.842,16.028 C17.422,17.897 16.141,19.136 14.629,19.136 Z M7.195,17.456 L14.629,17.456 C15.322,17.456 15.973,16.721 16.204,15.671 L17.38,9.854 C17.38,9.833 17.401,9.77 17.338,9.707 C17.275,9.623 17.149,9.581 17.023,9.581 L12.718,9.581 C12.151,9.581 11.626,9.287 11.332,8.804 C11.08,8.384 11.059,7.859 11.269,7.418 C11.794,5.78 11.92,4.352 11.563,3.869 C11.521,3.806 11.416,3.68 11.059,3.68 C10.618,3.68 10.471,3.764 10.135,4.31 L7.594,8.237 C7.342,8.636 7.216,9.077 7.216,9.518 C7.216,9.518 7.195,15.041 7.195,17.456 Z" id="形状" fill="#2584D6" fill-rule="nonzero"></path>
        <path d="M7.195,19.136 L3.604,19.136 C2.176,19.136 1,17.981 1,16.532 L1,16.427 L1.924,9.434 C1.966,8.594 2.659,7.922 3.52,7.922 L7.195,7.922 L7.195,19.136 Z M2.68,16.574 C2.701,17.057 3.121,17.456 3.604,17.456 L5.515,17.456 L5.515,9.581 L3.604,9.581 L3.604,9.602 L2.68,16.574 Z" id="形状" fill="#2584D6" fill-rule="nonzero"></path>
    </g>
</svg>